<svg width="35" height="35" viewBox="0 0 35 35" fill="none" xmlns="http://www.w3.org/2000/svg">
<path d="M17 26H4C3.44772 26 3 25.5523 3 25V4C3 3.44772 3.44772 3 4 3H17C17.5523 3 18 3.44772 18 4V25C18 25.5523 17.5523 26 17 26Z" stroke="white" stroke-width="1.4" stroke-linecap="round" stroke-linejoin="round"/>
<path d="M10.5 18C11.3284 18 12 17.3284 12 16.5C12 15.6716 11.3284 15 10.5 15C9.67157 15 9 15.6716 9 16.5C9 17.3284 9.67157 18 10.5 18Z" fill="white"/>
<path d="M10.5 23C11.3284 23 12 22.3284 12 21.5C12 20.6716 11.3284 20 10.5 20C9.67157 20 9 20.6716 9 21.5C9 22.3284 9.67157 23 10.5 23Z" fill="white"/>
<path d="M6 6H14Z" fill="white"/>
<path d="M6 6H14" stroke="white" stroke-width="1.4" stroke-linecap="round"/>
<path d="M23.8508 20.7639C22.9716 21.2707 22.259 21.9968 21.7661 22.8498C21.2725 23.704 20.9994 24.6855 21 25.7017C21.0003 26.1889 21.0636 26.684 21.1956 27.177C21.603 28.6974 22.5882 29.9088 23.8515 30.6382C24.7053 31.1311 25.6861 31.4039 26.7016 31.4033M29.5524 30.6394C30.4328 30.1319 31.1462 29.4045 31.6392 28.55C32.1315 27.6967 32.4039 26.7165 32.4033 25.7017C32.403 25.2145 32.3397 24.7193 32.2076 24.2263C31.8003 22.7062 30.8156 21.4951 29.5526 20.7656C28.6986 20.2724 27.7175 19.9994 26.7016 20" stroke="white" stroke-width="1.4" stroke-linecap="round" stroke-linejoin="round"/>
<path d="M22.6877 20.2041L24.1086 20.5848L23.7279 22.0057" stroke="white" stroke-width="1.4" stroke-linecap="round" stroke-linejoin="round"/>
<path d="M30.8806 30.9971L29.4597 30.6163L29.8404 29.1954" stroke="white" stroke-width="1.4" stroke-linecap="round" stroke-linejoin="round"/>
</svg>
